<?xml version="1.0" encoding="UTF-8" standalone="no"?>
<!DOCTYPE svg PUBLIC "-//W3C//DTD SVG 1.1//EN" "http://www.w3.org/Graphics/SVG/1.1/DTD/svg11.dtd">
<svg xmlns="http://www.w3.org/2000/svg" version="1.1" viewBox="0.00 0.00 508.00 508.00">
<g stroke-width="2.00" fill="none" stroke-linecap="butt">
<path stroke="#515050" vector-effect="non-scaling-stroke" d="
  M 268.67 477.93
  Q 266.92 476.34 263.86 478.21"
/>
<path stroke="#929292" vector-effect="non-scaling-stroke" d="
  M 259.46 478.41
  Q 271.66 472.69 283.43 466.15
  C 325.23 442.91 352.90 403.16 354.32 354.72
  Q 354.56 346.35 353.34 337.47
  Q 347.60 295.68 319.18 264.56
  C 306.24 250.37 290.82 236.68 273.87 227.35
  A 1.48 1.48 0.0 0 0 272.09 227.61
  C 265.74 234.12 262.67 241.68 256.66 245.77
  Q 253.43 247.96 249.80 245.21
  C 243.68 240.57 239.55 233.08 235.35 228.05
  A 1.98 1.98 0.0 0 0 232.81 227.63
  C 209.60 241.78 189.27 258.97 173.86 281.85
  C 147.06 321.65 145.49 372.47 169.18 413.51
  Q 182.74 437.01 202.05 451.95
  Q 216.12 462.83 230.74 470.29
  Q 237.70 473.85 249.03 478.49"
/>
<path stroke="#929292" vector-effect="non-scaling-stroke" d="
  M 278.01 88.70
  Q 268.31 95.73 261.17 105.52"
/>
<path stroke="#828180" vector-effect="non-scaling-stroke" d="
  M 261.17 105.52
  L 254.37 116.63
  A 0.57 0.56 42.9 0 1 253.43 116.66
  Q 251.83 114.43 247.90 108.33
  Q 246.31 105.86 241.55 99.88
  Q 238.28 95.77 233.85 92.56
  Q 230.45 90.10 224.63 85.97
  C 221.52 83.76 218.32 82.94 215.37 81.37
  C 211.05 79.05 205.44 77.85 200.11 76.52
  C 196.65 75.66 194.06 75.80 190.53 75.19
  C 187.62 74.69 184.02 74.88 181.27 74.90
  A 8.23 8.22 37.6 0 0 179.34 75.15
  Q 176.70 75.84 173.87 75.85
  A 5.57 5.48 37.9 0 0 172.59 76.00
  Q 160.00 78.97 158.64 79.63
  C 153.72 82.00 144.81 86.44 138.60 91.53
  C 130.60 98.09 122.96 106.39 118.15 115.56
  Q 115.14 121.31 114.45 123.45
  C 110.53 135.60 107.66 150.06 109.62 162.37
  Q 111.86 176.48 117.22 186.90
  Q 126.76 205.47 145.66 217.79
  Q 155.00 223.87 170.50 227.56
  C 173.40 228.25 176.52 228.21 179.58 228.73
  Q 182.56 229.25 186.43 229.00
  Q 194.70 228.48 202.59 227.08
  C 206.62 226.37 209.25 224.90 213.68 223.55
  A 7.60 7.52 -67.7 0 0 215.21 222.90
  C 220.51 220.00 223.18 218.76 226.66 215.01
  A 1.80 1.76 -21.1 0 0 227.13 213.98
  Q 227.85 207.84 232.48 202.94
  Q 236.91 198.26 244.28 191.03
  C 249.27 186.13 254.86 183.37 260.99 188.82
  Q 268.72 195.68 276.73 205.24
  Q 279.90 209.02 279.91 213.88
  A 3.44 3.42 -71.6 0 0 281.26 216.59
  C 290.13 223.38 302.50 227.53 313.76 228.37
  C 350.11 231.09 380.79 211.06 393.57 176.78
  C 394.69 173.80 395.20 169.11 396.11 165.57
  Q 398.89 154.77 396.84 142.37
  Q 396.60 140.94 394.90 133.07
  C 392.49 121.86 386.64 111.56 379.56 102.69
  C 368.40 88.71 349.71 78.19 331.74 75.75
  Q 302.19 71.73 278.01 88.70"
/>
<path stroke="#efeeee" vector-effect="non-scaling-stroke" d="
  M 261.17 105.52
  C 263.73 106.73 266.32 104.77 267.98 102.95
  Q 274.55 95.73 281.59 88.57
  Q 282.28 87.87 282.81 86.53
  A 0.19 0.19 0.0 0 0 282.54 86.29
  L 278.01 88.70"
/>
<path stroke="#aeacac" vector-effect="non-scaling-stroke" d="
  M 185.13 174.10
  C 197.34 174.21 207.71 170.77 218.32 163.88
  Q 222.57 161.12 223.84 158.44
  C 226.34 153.20 220.48 146.21 215.05 149.60
  Q 207.21 154.48 206.74 154.73
  Q 196.16 160.18 185.25 160.08
  Q 174.35 159.98 163.87 154.35
  Q 163.40 154.09 155.65 149.07
  C 150.28 145.59 144.30 152.47 146.70 157.76
  Q 147.93 160.46 152.13 163.29
  C 162.61 170.37 172.92 174.00 185.13 174.10"
/>
<path stroke="#aeacac" vector-effect="non-scaling-stroke" d="
  M 321.37 159.61
  Q 306.51 159.75 292.86 150.18
  C 284.82 144.55 277.28 155.81 285.68 162.06
  Q 302.20 174.36 321.50 174.18
  Q 340.80 174.00 357.09 161.41
  C 365.38 155.01 357.63 143.89 349.70 149.66
  Q 336.23 159.48 321.37 159.61"
/>
<path stroke="#f2bb80" vector-effect="non-scaling-stroke" d="
  M 241.91 363.35
  Q 242.70 366.51 242.05 370.51
  Q 238.30 393.82 235.98 406.04
  Q 235.19 410.17 239.42 411.12
  C 241.98 411.70 244.11 409.69 245.65 407.64
  Q 268.65 377.12 288.94 351.19
  Q 291.47 347.95 292.98 344.60
  A 3.51 3.43 -34.3 0 0 293.28 343.10
  Q 293.18 339.53 290.35 337.36
  Q 288.95 336.29 283.93 336.28
  Q 271.47 336.28 265.50 336.07
  Q 262.91 335.98 261.00 335.11
  A 2.01 2.01 0.0 0 1 259.86 332.97
  Q 263.64 309.28 267.16 291.99
  Q 267.63 289.71 267.41 288.49
  A 1.63 1.62 14.1 0 0 266.82 287.51
  Q 264.91 286.01 262.81 285.73
  A 1.67 1.64 -61.8 0 0 261.49 286.14
  Q 259.38 288.05 257.82 290.06
  Q 240.33 312.67 220.68 339.48
  C 217.55 343.74 214.52 347.57 212.07 352.34
  C 209.34 357.65 214.13 360.66 218.56 361.01
  Q 229.14 361.86 236.98 361.80
  Q 238.77 361.79 240.81 362.27
  A 1.46 1.45 -0.3 0 1 241.91 363.35"
/>
</g>
<path fill="#252424" d="
  M 268.67 477.93
  Q 266.92 476.34 263.86 478.21
  L 259.46 478.41
  Q 271.66 472.69 283.43 466.15
  C 325.23 442.91 352.90 403.16 354.32 354.72
  Q 354.56 346.35 353.34 337.47
  Q 347.60 295.68 319.18 264.56
  C 306.24 250.37 290.82 236.68 273.87 227.35
  A 1.48 1.48 0.0 0 0 272.09 227.61
  C 265.74 234.12 262.67 241.68 256.66 245.77
  Q 253.43 247.96 249.80 245.21
  C 243.68 240.57 239.55 233.08 235.35 228.05
  A 1.98 1.98 0.0 0 0 232.81 227.63
  C 209.60 241.78 189.27 258.97 173.86 281.85
  C 147.06 321.65 145.49 372.47 169.18 413.51
  Q 182.74 437.01 202.05 451.95
  Q 216.12 462.83 230.74 470.29
  Q 237.70 473.85 249.03 478.49
  C 227.29 478.15 207.91 473.76 187.50 466.32
  C 123.93 443.14 79.40 383.43 71.60 317.05
  Q 65.63 266.21 86.17 219.71
  Q 90.63 209.61 89.57 199.09
  Q 88.02 183.69 87.73 177.98
  Q 85.28 129.95 111.36 91.33
  Q 124.68 71.59 145.61 56.36
  C 175.95 34.28 215.29 24.50 253.00 24.54
  C 304.60 24.59 357.72 42.65 390.13 84.12
  Q 412.67 112.96 417.92 149.03
  C 420.53 166.96 419.22 184.83 417.14 202.75
  C 416.72 206.39 418.16 212.35 419.67 216.25
  Q 420.00 217.09 423.15 225.06
  Q 442.14 273.02 433.97 323.95
  Q 423.16 391.38 371.97 435.41
  C 352.33 452.31 326.82 465.06 302.18 472.15
  Q 285.48 476.96 268.67 477.93
  Z
  M 278.01 88.70
  Q 268.31 95.73 261.17 105.52
  L 254.37 116.63
  A 0.57 0.56 42.9 0 1 253.43 116.66
  Q 251.83 114.43 247.90 108.33
  Q 246.31 105.86 241.55 99.88
  Q 238.28 95.77 233.85 92.56
  Q 230.45 90.10 224.63 85.97
  C 221.52 83.76 218.32 82.94 215.37 81.37
  C 211.05 79.05 205.44 77.85 200.11 76.52
  C 196.65 75.66 194.06 75.80 190.53 75.19
  C 187.62 74.69 184.02 74.88 181.27 74.90
  A 8.23 8.22 37.6 0 0 179.34 75.15
  Q 176.70 75.84 173.87 75.85
  A 5.57 5.48 37.9 0 0 172.59 76.00
  Q 160.00 78.97 158.64 79.63
  C 153.72 82.00 144.81 86.44 138.60 91.53
  C 130.60 98.09 122.96 106.39 118.15 115.56
  Q 115.14 121.31 114.45 123.45
  C 110.53 135.60 107.66 150.06 109.62 162.37
  Q 111.86 176.48 117.22 186.90
  Q 126.76 205.47 145.66 217.79
  Q 155.00 223.87 170.50 227.56
  C 173.40 228.25 176.52 228.21 179.58 228.73
  Q 182.56 229.25 186.43 229.00
  Q 194.70 228.48 202.59 227.08
  C 206.62 226.37 209.25 224.90 213.68 223.55
  A 7.60 7.52 -67.7 0 0 215.21 222.90
  C 220.51 220.00 223.18 218.76 226.66 215.01
  A 1.80 1.76 -21.1 0 0 227.13 213.98
  Q 227.85 207.84 232.48 202.94
  Q 236.91 198.26 244.28 191.03
  C 249.27 186.13 254.86 183.37 260.99 188.82
  Q 268.72 195.68 276.73 205.24
  Q 279.90 209.02 279.91 213.88
  A 3.44 3.42 -71.6 0 0 281.26 216.59
  C 290.13 223.38 302.50 227.53 313.76 228.37
  C 350.11 231.09 380.79 211.06 393.57 176.78
  C 394.69 173.80 395.20 169.11 396.11 165.57
  Q 398.89 154.77 396.84 142.37
  Q 396.60 140.94 394.90 133.07
  C 392.49 121.86 386.64 111.56 379.56 102.69
  C 368.40 88.71 349.71 78.19 331.74 75.75
  Q 302.19 71.73 278.01 88.70
  Z"
/>
<path fill="#dfdddc" d="
  M 261.17 105.52
  C 263.73 106.73 266.32 104.77 267.98 102.95
  Q 274.55 95.73 281.59 88.57
  Q 282.28 87.87 282.81 86.53
  A 0.19 0.19 0.0 0 0 282.54 86.29
  L 278.01 88.70
  Q 302.19 71.73 331.74 75.75
  C 349.71 78.19 368.40 88.71 379.56 102.69
  C 386.64 111.56 392.49 121.86 394.90 133.07
  Q 396.60 140.94 396.84 142.37
  Q 398.89 154.77 396.11 165.57
  C 395.20 169.11 394.69 173.80 393.57 176.78
  C 380.79 211.06 350.11 231.09 313.76 228.37
  C 302.50 227.53 290.13 223.38 281.26 216.59
  A 3.44 3.42 -71.6 0 1 279.91 213.88
  Q 279.90 209.02 276.73 205.24
  Q 268.72 195.68 260.99 188.82
  C 254.86 183.37 249.27 186.13 244.28 191.03
  Q 236.91 198.26 232.48 202.94
  Q 227.85 207.84 227.13 213.98
  A 1.80 1.76 -21.1 0 1 226.66 215.01
  C 223.18 218.76 220.51 220.00 215.21 222.90
  A 7.60 7.52 -67.7 0 1 213.68 223.55
  C 209.25 224.90 206.62 226.37 202.59 227.08
  Q 194.70 228.48 186.43 229.00
  Q 182.56 229.25 179.58 228.73
  C 176.52 228.21 173.40 228.25 170.50 227.56
  Q 155.00 223.87 145.66 217.79
  Q 126.76 205.47 117.22 186.90
  Q 111.86 176.48 109.62 162.37
  C 107.66 150.06 110.53 135.60 114.45 123.45
  Q 115.14 121.31 118.15 115.56
  C 122.96 106.39 130.60 98.09 138.60 91.53
  C 144.81 86.44 153.72 82.00 158.64 79.63
  Q 160.00 78.97 172.59 76.00
  A 5.57 5.48 37.9 0 1 173.87 75.85
  Q 176.70 75.84 179.34 75.15
  A 8.23 8.22 37.6 0 1 181.27 74.90
  C 184.02 74.88 187.62 74.69 190.53 75.19
  C 194.06 75.80 196.65 75.66 200.11 76.52
  C 205.44 77.85 211.05 79.05 215.37 81.37
  C 218.32 82.94 221.52 83.76 224.63 85.97
  Q 230.45 90.10 233.85 92.56
  Q 238.28 95.77 241.55 99.88
  Q 246.31 105.86 247.90 108.33
  Q 251.83 114.43 253.43 116.66
  A 0.57 0.56 42.9 0 0 254.37 116.63
  L 261.17 105.52
  Z
  M 185.13 174.10
  C 197.34 174.21 207.71 170.77 218.32 163.88
  Q 222.57 161.12 223.84 158.44
  C 226.34 153.20 220.48 146.21 215.05 149.60
  Q 207.21 154.48 206.74 154.73
  Q 196.16 160.18 185.25 160.08
  Q 174.35 159.98 163.87 154.35
  Q 163.40 154.09 155.65 149.07
  C 150.28 145.59 144.30 152.47 146.70 157.76
  Q 147.93 160.46 152.13 163.29
  C 162.61 170.37 172.92 174.00 185.13 174.10
  Z
  M 321.37 159.61
  Q 306.51 159.75 292.86 150.18
  C 284.82 144.55 277.28 155.81 285.68 162.06
  Q 302.20 174.36 321.50 174.18
  Q 340.80 174.00 357.09 161.41
  C 365.38 155.01 357.63 143.89 349.70 149.66
  Q 336.23 159.48 321.37 159.61
  Z"
/>
<path fill="#ffffff" d="
  M 261.17 105.52
  Q 268.31 95.73 278.01 88.70
  L 282.54 86.29
  A 0.19 0.19 0.0 0 1 282.81 86.53
  Q 282.28 87.87 281.59 88.57
  Q 274.55 95.73 267.98 102.95
  C 266.32 104.77 263.73 106.73 261.17 105.52
  Z"
/>
<path fill="#7c7b7b" d="
  M 185.25 160.08
  Q 196.16 160.18 206.74 154.73
  Q 207.21 154.48 215.05 149.60
  C 220.48 146.21 226.34 153.20 223.84 158.44
  Q 222.57 161.12 218.32 163.88
  C 207.71 170.77 197.34 174.21 185.13 174.10
  C 172.92 174.00 162.61 170.37 152.13 163.29
  Q 147.93 160.46 146.70 157.76
  C 144.30 152.47 150.28 145.59 155.65 149.07
  Q 163.40 154.09 163.87 154.35
  Q 174.35 159.98 185.25 160.08
  Z"
/>
<path fill="#7c7b7b" d="
  M 321.50 174.18
  Q 302.20 174.36 285.68 162.06
  C 277.28 155.81 284.82 144.55 292.86 150.18
  Q 306.51 159.75 321.37 159.61
  Q 336.23 159.48 349.70 149.66
  C 357.63 143.89 365.38 155.01 357.09 161.41
  Q 340.80 174.00 321.50 174.18
  Z"
/>
<path fill="#ffffff" d="
  M 259.46 478.41
  L 249.03 478.49
  Q 237.70 473.85 230.74 470.29
  Q 216.12 462.83 202.05 451.95
  Q 182.74 437.01 169.18 413.51
  C 145.49 372.47 147.06 321.65 173.86 281.85
  C 189.27 258.97 209.60 241.78 232.81 227.63
  A 1.98 1.98 0.0 0 1 235.35 228.05
  C 239.55 233.08 243.68 240.57 249.80 245.21
  Q 253.43 247.96 256.66 245.77
  C 262.67 241.68 265.74 234.12 272.09 227.61
  A 1.48 1.48 0.0 0 1 273.87 227.35
  C 290.82 236.68 306.24 250.37 319.18 264.56
  Q 347.60 295.68 353.34 337.47
  Q 354.56 346.35 354.32 354.72
  C 352.90 403.16 325.23 442.91 283.43 466.15
  Q 271.66 472.69 259.46 478.41
  Z
  M 241.91 363.35
  Q 242.70 366.51 242.05 370.51
  Q 238.30 393.82 235.98 406.04
  Q 235.19 410.17 239.42 411.12
  C 241.98 411.70 244.11 409.69 245.65 407.64
  Q 268.65 377.12 288.94 351.19
  Q 291.47 347.95 292.98 344.60
  A 3.51 3.43 -34.3 0 0 293.28 343.10
  Q 293.18 339.53 290.35 337.36
  Q 288.95 336.29 283.93 336.28
  Q 271.47 336.28 265.50 336.07
  Q 262.91 335.98 261.00 335.11
  A 2.01 2.01 0.0 0 1 259.86 332.97
  Q 263.64 309.28 267.16 291.99
  Q 267.63 289.71 267.41 288.49
  A 1.63 1.62 14.1 0 0 266.82 287.51
  Q 264.91 286.01 262.81 285.73
  A 1.67 1.64 -61.8 0 0 261.49 286.14
  Q 259.38 288.05 257.82 290.06
  Q 240.33 312.67 220.68 339.48
  C 217.55 343.74 214.52 347.57 212.07 352.34
  C 209.34 357.65 214.13 360.66 218.56 361.01
  Q 229.14 361.86 236.98 361.80
  Q 238.77 361.79 240.81 362.27
  A 1.46 1.45 -0.3 0 1 241.91 363.35
  Z"
/>
<path fill="#e47600" d="
  M 241.91 363.35
  A 1.46 1.45 -0.3 0 0 240.81 362.27
  Q 238.77 361.79 236.98 361.80
  Q 229.14 361.86 218.56 361.01
  C 214.13 360.66 209.34 357.65 212.07 352.34
  C 214.52 347.57 217.55 343.74 220.68 339.48
  Q 240.33 312.67 257.82 290.06
  Q 259.38 288.05 261.49 286.14
  A 1.67 1.64 -61.8 0 1 262.81 285.73
  Q 264.91 286.01 266.82 287.51
  A 1.63 1.62 14.1 0 1 267.41 288.49
  Q 267.63 289.71 267.16 291.99
  Q 263.64 309.28 259.86 332.97
  A 2.01 2.01 0.0 0 0 261.00 335.11
  Q 262.91 335.98 265.50 336.07
  Q 271.47 336.28 283.93 336.28
  Q 288.95 336.29 290.35 337.36
  Q 293.18 339.53 293.28 343.10
  A 3.51 3.43 -34.3 0 1 292.98 344.60
  Q 291.47 347.95 288.94 351.19
  Q 268.65 377.12 245.65 407.64
  C 244.11 409.69 241.98 411.70 239.42 411.12
  Q 235.19 410.17 235.98 406.04
  Q 238.30 393.82 242.05 370.51
  Q 242.70 366.51 241.91 363.35
  Z"
/>
<path fill="#7c7b7b" d="
  M 268.67 477.93
  L 263.86 478.21
  Q 266.92 476.34 268.67 477.93
  Z"
/>
</svg>
