<svg xmlns="http://www.w3.org/2000/svg" viewBox="0 0 881 240">
  <svg x="0" y="0" width="240" height="240" viewBox="0 0 508 508" overflow="visible">
<g stroke-width="2.00" fill="none" stroke-linecap="butt">
<path stroke="#515050" vector-effect="non-scaling-stroke" d="
  M 268.67 477.93
  Q 266.92 476.34 263.86 478.21"
/>
<path stroke="#929292" vector-effect="non-scaling-stroke" d="
  M 259.46 478.41
  Q 271.66 472.69 283.43 466.15
  C 325.23 442.91 352.90 403.16 354.32 354.72
  Q 354.56 346.35 353.34 337.47
  Q 347.60 295.68 319.18 264.56
  C 306.24 250.37 290.82 236.68 273.87 227.35
  A 1.48 1.48 0.0 0 0 272.09 227.61
  C 265.74 234.12 262.67 241.68 256.66 245.77
  Q 253.43 247.96 249.80 245.21
  C 243.68 240.57 239.55 233.08 235.35 228.05
  A 1.98 1.98 0.0 0 0 232.81 227.63
  C 209.60 241.78 189.27 258.97 173.86 281.85
  C 147.06 321.65 145.49 372.47 169.18 413.51
  Q 182.74 437.01 202.05 451.95
  Q 216.12 462.83 230.74 470.29
  Q 237.70 473.85 249.03 478.49"
/>
<path stroke="#929292" vector-effect="non-scaling-stroke" d="
  M 278.01 88.70
  Q 268.31 95.73 261.17 105.52"
/>
<path stroke="#828180" vector-effect="non-scaling-stroke" d="
  M 261.17 105.52
  L 254.37 116.63
  A 0.57 0.56 42.9 0 1 253.43 116.66
  Q 251.83 114.43 247.90 108.33
  Q 246.31 105.86 241.55 99.88
  Q 238.28 95.77 233.85 92.56
  Q 230.45 90.10 224.63 85.97
  C 221.52 83.76 218.32 82.94 215.37 81.37
  C 211.05 79.05 205.44 77.85 200.11 76.52
  C 196.65 75.66 194.06 75.80 190.53 75.19
  C 187.62 74.69 184.02 74.88 181.27 74.90
  A 8.23 8.22 37.6 0 0 179.34 75.15
  Q 176.70 75.84 173.87 75.85
  A 5.57 5.48 37.9 0 0 172.59 76.00
  Q 160.00 78.97 158.64 79.63
  C 153.72 82.00 144.81 86.44 138.60 91.53
  C 130.60 98.09 122.96 106.39 118.15 115.56
  Q 115.14 121.31 114.45 123.45
  C 110.53 135.60 107.66 150.06 109.62 162.37
  Q 111.86 176.48 117.22 186.90
  Q 126.76 205.47 145.66 217.79
  Q 155.00 223.87 170.50 227.56
  C 173.40 228.25 176.52 228.21 179.58 228.73
  Q 182.56 229.25 186.43 229.00
  Q 194.70 228.48 202.59 227.08
  C 206.62 226.37 209.25 224.90 213.68 223.55
  A 7.60 7.52 -67.7 0 0 215.21 222.90
  C 220.51 220.00 223.18 218.76 226.66 215.01
  A 1.80 1.76 -21.1 0 0 227.13 213.98
  Q 227.85 207.84 232.48 202.94
  Q 236.91 198.26 244.28 191.03
  C 249.27 186.13 254.86 183.37 260.99 188.82
  Q 268.72 195.68 276.73 205.24
  Q 279.90 209.02 279.91 213.88
  A 3.44 3.42 -71.6 0 0 281.26 216.59
  C 290.13 223.38 302.50 227.53 313.76 228.37
  C 350.11 231.09 380.79 211.06 393.57 176.78
  C 394.69 173.80 395.20 169.11 396.11 165.57
  Q 398.89 154.77 396.84 142.37
  Q 396.60 140.94 394.90 133.07
  C 392.49 121.86 386.64 111.56 379.56 102.69
  C 368.40 88.71 349.71 78.19 331.74 75.75
  Q 302.19 71.73 278.01 88.70"
/>
<path stroke="#efeeee" vector-effect="non-scaling-stroke" d="
  M 261.17 105.52
  C 263.73 106.73 266.32 104.77 267.98 102.95
  Q 274.55 95.73 281.59 88.57
  Q 282.28 87.87 282.81 86.53
  A 0.19 0.19 0.0 0 0 282.54 86.29
  L 278.01 88.70"
/>
<path stroke="#aeacac" vector-effect="non-scaling-stroke" d="
  M 185.13 174.10
  C 197.34 174.21 207.71 170.77 218.32 163.88
  Q 222.57 161.12 223.84 158.44
  C 226.34 153.20 220.48 146.21 215.05 149.60
  Q 207.21 154.48 206.74 154.73
  Q 196.16 160.18 185.25 160.08
  Q 174.35 159.98 163.87 154.35
  Q 163.40 154.09 155.65 149.07
  C 150.28 145.59 144.30 152.47 146.70 157.76
  Q 147.93 160.46 152.13 163.29
  C 162.61 170.37 172.92 174.00 185.13 174.10"
/>
<path stroke="#aeacac" vector-effect="non-scaling-stroke" d="
  M 321.37 159.61
  Q 306.51 159.75 292.86 150.18
  C 284.82 144.55 277.28 155.81 285.68 162.06
  Q 302.20 174.36 321.50 174.18
  Q 340.80 174.00 357.09 161.41
  C 365.38 155.01 357.63 143.89 349.70 149.66
  Q 336.23 159.48 321.37 159.61"
/>
<path stroke="#f2bb80" vector-effect="non-scaling-stroke" d="
  M 241.91 363.35
  Q 242.70 366.51 242.05 370.51
  Q 238.30 393.82 235.98 406.04
  Q 235.19 410.17 239.42 411.12
  C 241.98 411.70 244.11 409.69 245.65 407.64
  Q 268.65 377.12 288.94 351.19
  Q 291.47 347.95 292.98 344.60
  A 3.51 3.43 -34.3 0 0 293.28 343.10
  Q 293.18 339.53 290.35 337.36
  Q 288.95 336.29 283.93 336.28
  Q 271.47 336.28 265.50 336.07
  Q 262.91 335.98 261.00 335.11
  A 2.01 2.01 0.0 0 1 259.86 332.97
  Q 263.64 309.28 267.16 291.99
  Q 267.63 289.71 267.41 288.49
  A 1.63 1.62 14.1 0 0 266.82 287.51
  Q 264.91 286.01 262.81 285.73
  A 1.67 1.64 -61.8 0 0 261.49 286.14
  Q 259.38 288.05 257.82 290.06
  Q 240.33 312.67 220.68 339.48
  C 217.55 343.74 214.52 347.57 212.07 352.34
  C 209.34 357.65 214.13 360.66 218.56 361.01
  Q 229.14 361.86 236.98 361.80
  Q 238.77 361.79 240.81 362.27
  A 1.46 1.45 -0.3 0 1 241.91 363.35"
/>
</g>
<path fill="#252424" d="
  M 268.67 477.93
  Q 266.92 476.34 263.86 478.21
  L 259.46 478.41
  Q 271.66 472.69 283.43 466.15
  C 325.23 442.91 352.90 403.16 354.32 354.72
  Q 354.56 346.35 353.34 337.47
  Q 347.60 295.68 319.18 264.56
  C 306.24 250.37 290.82 236.68 273.87 227.35
  A 1.48 1.48 0.0 0 0 272.09 227.61
  C 265.74 234.12 262.67 241.68 256.66 245.77
  Q 253.43 247.96 249.80 245.21
  C 243.68 240.57 239.55 233.08 235.35 228.05
  A 1.98 1.98 0.0 0 0 232.81 227.63
  C 209.60 241.78 189.27 258.97 173.86 281.85
  C 147.06 321.65 145.49 372.47 169.18 413.51
  Q 182.74 437.01 202.05 451.95
  Q 216.12 462.83 230.74 470.29
  Q 237.70 473.85 249.03 478.49
  C 227.29 478.15 207.91 473.76 187.50 466.32
  C 123.93 443.14 79.40 383.43 71.60 317.05
  Q 65.63 266.21 86.17 219.71
  Q 90.63 209.61 89.57 199.09
  Q 88.02 183.69 87.73 177.98
  Q 85.28 129.95 111.36 91.33
  Q 124.68 71.59 145.61 56.36
  C 175.95 34.28 215.29 24.50 253.00 24.54
  C 304.60 24.59 357.72 42.65 390.13 84.12
  Q 412.67 112.96 417.92 149.03
  C 420.53 166.96 419.22 184.83 417.14 202.75
  C 416.72 206.39 418.16 212.35 419.67 216.25
  Q 420.00 217.09 423.15 225.06
  Q 442.14 273.02 433.97 323.95
  Q 423.16 391.38 371.97 435.41
  C 352.33 452.31 326.82 465.06 302.18 472.15
  Q 285.48 476.96 268.67 477.93
  Z
  M 278.01 88.70
  Q 268.31 95.73 261.17 105.52
  L 254.37 116.63
  A 0.57 0.56 42.9 0 1 253.43 116.66
  Q 251.83 114.43 247.90 108.33
  Q 246.31 105.86 241.55 99.88
  Q 238.28 95.77 233.85 92.56
  Q 230.45 90.10 224.63 85.97
  C 221.52 83.76 218.32 82.94 215.37 81.37
  C 211.05 79.05 205.44 77.85 200.11 76.52
  C 196.65 75.66 194.06 75.80 190.53 75.19
  C 187.62 74.69 184.02 74.88 181.27 74.90
  A 8.23 8.22 37.6 0 0 179.34 75.15
  Q 176.70 75.84 173.87 75.85
  A 5.57 5.48 37.9 0 0 172.59 76.00
  Q 160.00 78.97 158.64 79.63
  C 153.72 82.00 144.81 86.44 138.60 91.53
  C 130.60 98.09 122.96 106.39 118.15 115.56
  Q 115.14 121.31 114.45 123.45
  C 110.53 135.60 107.66 150.06 109.62 162.37
  Q 111.86 176.48 117.22 186.90
  Q 126.76 205.47 145.66 217.79
  Q 155.00 223.87 170.50 227.56
  C 173.40 228.25 176.52 228.21 179.58 228.73
  Q 182.56 229.25 186.43 229.00
  Q 194.70 228.48 202.59 227.08
  C 206.62 226.37 209.25 224.90 213.68 223.55
  A 7.60 7.52 -67.7 0 0 215.21 222.90
  C 220.51 220.00 223.18 218.76 226.66 215.01
  A 1.80 1.76 -21.1 0 0 227.13 213.98
  Q 227.85 207.84 232.48 202.94
  Q 236.91 198.26 244.28 191.03
  C 249.27 186.13 254.86 183.37 260.99 188.82
  Q 268.72 195.68 276.73 205.24
  Q 279.90 209.02 279.91 213.88
  A 3.44 3.42 -71.6 0 0 281.26 216.59
  C 290.13 223.38 302.50 227.53 313.76 228.37
  C 350.11 231.09 380.79 211.06 393.57 176.78
  C 394.69 173.80 395.20 169.11 396.11 165.57
  Q 398.89 154.77 396.84 142.37
  Q 396.60 140.94 394.90 133.07
  C 392.49 121.86 386.64 111.56 379.56 102.69
  C 368.40 88.71 349.71 78.19 331.74 75.75
  Q 302.19 71.73 278.01 88.70
  Z"
/>
<path fill="#dfdddc" d="
  M 261.17 105.52
  C 263.73 106.73 266.32 104.77 267.98 102.95
  Q 274.55 95.73 281.59 88.57
  Q 282.28 87.87 282.81 86.53
  A 0.19 0.19 0.0 0 0 282.54 86.29
  L 278.01 88.70
  Q 302.19 71.73 331.74 75.75
  C 349.71 78.19 368.40 88.71 379.56 102.69
  C 386.64 111.56 392.49 121.86 394.90 133.07
  Q 396.60 140.94 396.84 142.37
  Q 398.89 154.77 396.11 165.57
  C 395.20 169.11 394.69 173.80 393.57 176.78
  C 380.79 211.06 350.11 231.09 313.76 228.37
  C 302.50 227.53 290.13 223.38 281.26 216.59
  A 3.44 3.42 -71.6 0 1 279.91 213.88
  Q 279.90 209.02 276.73 205.24
  Q 268.72 195.68 260.99 188.82
  C 254.86 183.37 249.27 186.13 244.28 191.03
  Q 236.91 198.26 232.48 202.94
  Q 227.85 207.84 227.13 213.98
  A 1.80 1.76 -21.1 0 1 226.66 215.01
  C 223.18 218.76 220.51 220.00 215.21 222.90
  A 7.60 7.52 -67.7 0 1 213.68 223.55
  C 209.25 224.90 206.62 226.37 202.59 227.08
  Q 194.70 228.48 186.43 229.00
  Q 182.56 229.25 179.58 228.73
  C 176.52 228.21 173.40 228.25 170.50 227.56
  Q 155.00 223.87 145.66 217.79
  Q 126.76 205.47 117.22 186.90
  Q 111.86 176.48 109.62 162.37
  C 107.66 150.06 110.53 135.60 114.45 123.45
  Q 115.14 121.31 118.15 115.56
  C 122.96 106.39 130.60 98.09 138.60 91.53
  C 144.81 86.44 153.72 82.00 158.64 79.63
  Q 160.00 78.97 172.59 76.00
  A 5.57 5.48 37.9 0 1 173.87 75.85
  Q 176.70 75.84 179.34 75.15
  A 8.23 8.22 37.6 0 1 181.27 74.90
  C 184.02 74.88 187.62 74.69 190.53 75.19
  C 194.06 75.80 196.65 75.66 200.11 76.52
  C 205.44 77.85 211.05 79.05 215.37 81.37
  C 218.32 82.94 221.52 83.76 224.63 85.97
  Q 230.45 90.10 233.85 92.56
  Q 238.28 95.77 241.55 99.88
  Q 246.31 105.86 247.90 108.33
  Q 251.83 114.43 253.43 116.66
  A 0.57 0.56 42.9 0 0 254.37 116.63
  L 261.17 105.52
  Z
  M 185.13 174.10
  C 197.34 174.21 207.71 170.77 218.32 163.88
  Q 222.57 161.12 223.84 158.44
  C 226.34 153.20 220.48 146.21 215.05 149.60
  Q 207.21 154.48 206.74 154.73
  Q 196.16 160.18 185.25 160.08
  Q 174.35 159.98 163.87 154.35
  Q 163.40 154.09 155.65 149.07
  C 150.28 145.59 144.30 152.47 146.70 157.76
  Q 147.93 160.46 152.13 163.29
  C 162.61 170.37 172.92 174.00 185.13 174.10
  Z
  M 321.37 159.61
  Q 306.51 159.75 292.86 150.18
  C 284.82 144.55 277.28 155.81 285.68 162.06
  Q 302.20 174.36 321.50 174.18
  Q 340.80 174.00 357.09 161.41
  C 365.38 155.01 357.63 143.89 349.70 149.66
  Q 336.23 159.48 321.37 159.61
  Z"
/>
<path fill="#ffffff" d="
  M 261.17 105.52
  Q 268.31 95.73 278.01 88.70
  L 282.54 86.29
  A 0.19 0.19 0.0 0 1 282.81 86.53
  Q 282.28 87.87 281.59 88.57
  Q 274.55 95.73 267.98 102.95
  C 266.32 104.77 263.73 106.73 261.17 105.52
  Z"
/>
<path fill="#7c7b7b" d="
  M 185.25 160.08
  Q 196.16 160.18 206.74 154.73
  Q 207.21 154.48 215.05 149.60
  C 220.48 146.21 226.34 153.20 223.84 158.44
  Q 222.57 161.12 218.32 163.88
  C 207.71 170.77 197.34 174.21 185.13 174.10
  C 172.92 174.00 162.61 170.37 152.13 163.29
  Q 147.93 160.46 146.70 157.76
  C 144.30 152.47 150.28 145.59 155.65 149.07
  Q 163.40 154.09 163.87 154.35
  Q 174.35 159.98 185.25 160.08
  Z"
/>
<path fill="#7c7b7b" d="
  M 321.50 174.18
  Q 302.20 174.36 285.68 162.06
  C 277.28 155.81 284.82 144.55 292.86 150.18
  Q 306.51 159.75 321.37 159.61
  Q 336.23 159.48 349.70 149.66
  C 357.63 143.89 365.38 155.01 357.09 161.41
  Q 340.80 174.00 321.50 174.18
  Z"
/>
<path fill="#ffffff" d="
  M 259.46 478.41
  L 249.03 478.49
  Q 237.70 473.85 230.74 470.29
  Q 216.12 462.83 202.05 451.95
  Q 182.74 437.01 169.18 413.51
  C 145.49 372.47 147.06 321.65 173.86 281.85
  C 189.27 258.97 209.60 241.78 232.81 227.63
  A 1.98 1.98 0.0 0 1 235.35 228.05
  C 239.55 233.08 243.68 240.57 249.80 245.21
  Q 253.43 247.96 256.66 245.77
  C 262.67 241.68 265.74 234.12 272.09 227.61
  A 1.48 1.48 0.0 0 1 273.87 227.35
  C 290.82 236.68 306.24 250.37 319.18 264.56
  Q 347.60 295.68 353.34 337.47
  Q 354.56 346.35 354.32 354.72
  C 352.90 403.16 325.23 442.91 283.43 466.15
  Q 271.66 472.69 259.46 478.41
  Z
  M 241.91 363.35
  Q 242.70 366.51 242.05 370.51
  Q 238.30 393.82 235.98 406.04
  Q 235.19 410.17 239.42 411.12
  C 241.98 411.70 244.11 409.69 245.65 407.64
  Q 268.65 377.12 288.94 351.19
  Q 291.47 347.95 292.98 344.60
  A 3.51 3.43 -34.3 0 0 293.28 343.10
  Q 293.18 339.53 290.35 337.36
  Q 288.95 336.29 283.93 336.28
  Q 271.47 336.28 265.50 336.07
  Q 262.91 335.98 261.00 335.11
  A 2.01 2.01 0.0 0 1 259.86 332.97
  Q 263.64 309.28 267.16 291.99
  Q 267.63 289.71 267.41 288.49
  A 1.63 1.62 14.1 0 0 266.82 287.51
  Q 264.91 286.01 262.81 285.73
  A 1.67 1.64 -61.8 0 0 261.49 286.14
  Q 259.38 288.05 257.82 290.06
  Q 240.33 312.67 220.68 339.48
  C 217.55 343.74 214.52 347.57 212.07 352.34
  C 209.34 357.65 214.13 360.66 218.56 361.01
  Q 229.14 361.86 236.98 361.80
  Q 238.77 361.79 240.81 362.27
  A 1.46 1.45 -0.3 0 1 241.91 363.35
  Z"
/>
<path fill="#e47600" d="
  M 241.91 363.35
  A 1.46 1.45 -0.3 0 0 240.81 362.27
  Q 238.77 361.79 236.98 361.80
  Q 229.14 361.86 218.56 361.01
  C 214.13 360.66 209.34 357.65 212.07 352.34
  C 214.52 347.57 217.55 343.74 220.68 339.48
  Q 240.33 312.67 257.82 290.06
  Q 259.38 288.05 261.49 286.14
  A 1.67 1.64 -61.8 0 1 262.81 285.73
  Q 264.91 286.01 266.82 287.51
  A 1.63 1.62 14.1 0 1 267.41 288.49
  Q 267.63 289.71 267.16 291.99
  Q 263.64 309.28 259.86 332.97
  A 2.01 2.01 0.0 0 0 261.00 335.11
  Q 262.91 335.98 265.50 336.07
  Q 271.47 336.28 283.93 336.28
  Q 288.95 336.29 290.35 337.36
  Q 293.18 339.53 293.28 343.10
  A 3.51 3.43 -34.3 0 1 292.98 344.60
  Q 291.47 347.95 288.94 351.19
  Q 268.65 377.12 245.65 407.64
  C 244.11 409.69 241.98 411.70 239.42 411.12
  Q 235.19 410.17 235.98 406.04
  Q 238.30 393.82 242.05 370.51
  Q 242.70 366.51 241.91 363.35
  Z"
/>
<path fill="#7c7b7b" d="
  M 268.67 477.93
  L 263.86 478.21
  Q 266.92 476.34 268.67 477.93
  Z"
/>
</svg>
  <g transform="translate(286.0,154.7) scale(0.1390)"><path d="M240.9 15.0 Q207.0 15.0 177.5 6.4 Q148.0 -2.0 125.0 -15.0 Q102.0 -28.0 85.5 -40.5 Q69.1 -53.0 60.9 -60.9 Q50.0 -73.0 41.4 -83.9 Q33.0 -95.0 33.0 -107.0 Q33.0 -118.0 39.4 -129.4 Q45.9 -140.9 57.0 -152.0 Q70.0 -165.9 80.0 -171.4 Q90.0 -177.0 100.9 -177.0 Q115.9 -177.0 127.5 -166.4 Q139.1 -155.9 155.0 -140.9 Q163.0 -135.0 175.9 -126.4 Q189.1 -118.0 206.6 -111.9 Q224.1 -105.9 245.0 -105.9 Q273.0 -105.9 293.4 -115.5 Q314.1 -125.0 327.5 -143.0 Q340.9 -160.9 347.5 -185.5 Q354.1 -210.0 354.1 -239.1 L354.1 -620.9 Q354.1 -639.1 358.0 -655.0 Q362.0 -670.9 375.0 -680.0 Q388.0 -689.1 417.0 -689.1 Q444.1 -689.1 456.6 -680.5 Q469.1 -672.0 472.5 -658.0 Q475.9 -644.1 475.9 -627.0 L475.9 -232.0 Q475.9 -179.1 459.4 -134.1 Q443.0 -89.1 412.5 -55.5 Q382.0 -22.0 338.4 -3.4 Q295.0 15.0 240.9 15.0 Z M822.0 15.9 Q774.1 15.9 728.4 -2.5 Q683.0 -20.9 646.4 -55.0 Q610.0 -89.1 588.4 -135.0 Q567.0 -180.9 567.0 -235.9 Q567.0 -289.1 587.0 -335.0 Q607.0 -380.9 642.0 -415.9 Q677.0 -450.9 722.5 -470.5 Q768.0 -490.0 820.0 -490.0 Q890.0 -490.0 947.0 -456.4 Q1004.1 -423.0 1038.0 -365.9 Q1072.0 -309.1 1072.0 -237.0 Q1072.0 -180.0 1050.9 -133.4 Q1030.0 -87.0 993.9 -53.4 Q958.0 -20.0 913.4 -2.0 Q869.1 15.9 822.0 15.9 Z M820.0 -102.0 Q853.0 -102.0 883.4 -118.4 Q914.1 -135.0 933.4 -165.9 Q953.0 -197.0 953.0 -239.1 Q953.0 -278.0 935.5 -308.0 Q918.0 -338.0 888.0 -355.0 Q858.0 -372.0 819.1 -372.0 Q782.0 -372.0 752.0 -354.5 Q722.0 -337.0 704.5 -306.4 Q687.0 -275.9 687.0 -238.0 Q687.0 -195.9 705.9 -165.5 Q725.0 -135.0 755.5 -118.4 Q785.9 -102.0 820.0 -102.0 Z M1354.9 9.1 Q1309.0 9.1 1270.4 -7.5 Q1232.0 -24.1 1202.9 -55.0 Q1174.0 -85.9 1157.9 -128.9 Q1142.0 -172.0 1142.0 -224.1 L1142.0 -423.0 Q1142.0 -440.0 1144.9 -453.4 Q1148.1 -467.0 1161.0 -475.0 Q1174.0 -483.0 1201.0 -483.0 Q1229.9 -483.0 1242.4 -475.0 Q1254.9 -467.0 1257.9 -453.0 Q1261.0 -439.1 1261.0 -422.0 L1261.0 -224.1 Q1261.0 -188.0 1273.5 -161.9 Q1286.0 -135.9 1309.9 -121.4 Q1334.0 -107.0 1369.0 -107.0 Q1404.9 -107.0 1430.4 -121.4 Q1456.0 -135.9 1469.9 -162.5 Q1484.0 -189.1 1484.0 -224.1 L1484.0 -424.1 Q1484.0 -440.9 1487.0 -454.4 Q1489.9 -468.0 1502.9 -475.5 Q1516.0 -483.0 1544.0 -483.0 Q1572.0 -483.0 1584.0 -475.0 Q1596.0 -467.0 1599.5 -453.0 Q1603.1 -439.1 1603.1 -423.0 L1603.1 -48.0 Q1603.1 -33.0 1599.5 -20.0 Q1596.0 -7.0 1583.5 0.9 Q1571.0 9.1 1543.1 9.1 Q1523.1 9.1 1511.5 4.5 Q1499.9 -0.0 1494.5 -7.5 Q1489.0 -15.0 1487.4 -23.0 Q1486.0 -30.9 1486.0 -39.1 L1494.0 -65.9 Q1488.1 -57.0 1476.0 -44.5 Q1464.0 -32.0 1446.5 -19.5 Q1429.0 -7.0 1406.0 0.9 Q1383.1 9.1 1354.9 9.1 Z M1874.1 10.0 Q1837.0 10.0 1808.4 5.0 Q1780.0 -0.0 1759.5 -12.0 Q1739.1 -24.1 1725.9 -44.5 Q1713.0 -65.0 1706.4 -95.0 Q1700.0 -125.0 1700.0 -167.0 L1700.0 -649.1 Q1700.0 -665.9 1703.4 -679.4 Q1707.0 -693.0 1719.5 -701.4 Q1732.0 -710.0 1760.0 -710.0 Q1788.0 -710.0 1800.5 -702.0 Q1813.0 -694.1 1816.4 -680.5 Q1820.0 -667.0 1820.0 -650.0 L1820.0 -172.0 Q1820.0 -153.0 1822.5 -140.5 Q1825.0 -128.0 1831.4 -120.5 Q1838.0 -113.0 1848.4 -110.0 Q1859.1 -107.0 1874.1 -107.0 Q1887.0 -107.0 1897.5 -103.9 Q1908.0 -100.9 1914.4 -88.9 Q1920.9 -77.0 1920.9 -50.0 Q1920.9 -22.0 1914.4 -8.9 Q1908.0 4.1 1896.9 7.0 Q1885.9 10.0 1874.1 10.0 Z M2231.0 15.9 Q2166.0 15.9 2117.4 -5.0 Q2069.0 -25.9 2036.5 -62.5 Q2004.0 -99.1 1987.4 -144.5 Q1971.0 -190.0 1971.0 -239.1 Q1971.0 -310.9 2004.0 -366.9 Q2036.9 -423.0 2095.4 -455.0 Q2154.0 -487.0 2230.1 -487.0 Q2284.0 -487.0 2324.9 -470.0 Q2366.0 -453.0 2393.5 -425.5 Q2421.0 -398.0 2435.5 -365.0 Q2450.1 -332.0 2450.1 -300.9 Q2450.1 -248.0 2424.4 -223.9 Q2399.0 -200.0 2361.0 -200.0 L2096.9 -200.0 Q2098.0 -165.9 2118.5 -140.9 Q2139.0 -115.9 2170.4 -102.5 Q2201.9 -89.1 2235.1 -89.1 Q2260.1 -89.1 2279.4 -92.0 Q2299.0 -95.0 2312.9 -99.5 Q2326.9 -104.1 2337.4 -109.1 Q2348.0 -114.1 2356.9 -118.0 Q2366.0 -122.0 2374.0 -123.0 Q2385.1 -124.1 2396.0 -118.0 Q2406.9 -112.0 2414.0 -97.0 Q2420.1 -87.0 2422.6 -78.4 Q2425.1 -70.0 2425.1 -62.0 Q2425.1 -42.0 2401.0 -24.5 Q2376.9 -7.0 2333.5 4.4 Q2290.1 15.9 2231.0 15.9 Z M2096.9 -270.9 L2301.9 -270.9 Q2319.0 -270.9 2327.9 -276.4 Q2336.9 -282.0 2336.9 -300.0 Q2336.9 -323.0 2322.9 -341.4 Q2309.0 -360.0 2284.9 -370.5 Q2261.0 -380.9 2229.0 -380.9 Q2191.9 -380.9 2161.9 -366.4 Q2131.9 -352.0 2114.4 -327.0 Q2096.9 -302.0 2096.9 -270.9 Z M2590.9 9.1 Q2564.1 9.1 2551.6 0.5 Q2539.1 -8.0 2535.9 -21.4 Q2533.0 -35.0 2533.0 -52.0 L2533.0 -425.9 Q2533.0 -442.0 2535.9 -455.0 Q2539.1 -468.0 2552.0 -475.5 Q2565.0 -483.0 2592.0 -483.0 Q2615.9 -483.0 2628.0 -476.9 Q2640.0 -470.9 2643.9 -461.9 Q2648.0 -453.0 2648.4 -443.9 Q2649.1 -435.0 2650.0 -430.0 L2645.9 -398.0 Q2652.0 -414.1 2665.9 -429.1 Q2680.0 -444.1 2700.0 -456.6 Q2720.0 -469.1 2743.4 -476.6 Q2767.0 -484.1 2792.0 -484.1 Q2839.1 -484.1 2875.9 -467.0 Q2913.0 -450.0 2939.4 -418.9 Q2965.9 -388.0 2980.0 -345.5 Q2994.1 -303.0 2994.1 -250.0 L2994.1 -50.9 Q2994.1 -34.1 2990.5 -20.5 Q2987.0 -7.0 2975.0 0.9 Q2963.0 9.1 2934.1 9.1 Q2905.9 9.1 2893.0 0.5 Q2880.0 -8.0 2877.0 -21.4 Q2874.1 -35.0 2874.1 -52.0 L2874.1 -250.9 Q2874.1 -287.0 2861.6 -313.0 Q2849.1 -339.1 2825.5 -353.0 Q2802.0 -367.0 2765.9 -367.0 Q2730.9 -367.0 2705.0 -352.5 Q2679.1 -338.0 2665.0 -311.9 Q2650.9 -285.9 2650.9 -250.9 L2650.9 -50.9 Q2650.9 -34.1 2648.0 -20.5 Q2645.0 -7.0 2632.5 0.9 Q2620.0 9.1 2590.9 9.1 Z M3502.0 8.0 Q3473.0 8.0 3458.9 -3.0 Q3445.0 -14.1 3445.0 -33.0 L3452.0 -65.9 Q3444.1 -53.0 3425.0 -35.5 Q3405.9 -18.0 3375.0 -4.4 Q3344.1 9.1 3300.0 9.1 Q3253.0 9.1 3211.4 -10.5 Q3170.0 -30.0 3138.4 -64.5 Q3107.0 -99.1 3088.4 -143.4 Q3070.0 -188.0 3070.0 -239.1 Q3070.0 -288.0 3088.4 -331.4 Q3107.0 -375.0 3138.9 -408.9 Q3170.9 -443.0 3212.5 -462.5 Q3254.1 -482.0 3300.0 -482.0 Q3340.9 -482.0 3369.4 -470.9 Q3398.0 -460.0 3418.0 -443.4 Q3438.0 -427.0 3450.9 -409.1 L3445.0 -438.0 Q3445.0 -460.0 3458.9 -471.4 Q3473.0 -483.0 3503.0 -483.0 Q3530.9 -483.0 3543.0 -474.4 Q3555.0 -465.9 3558.0 -451.4 Q3560.9 -437.0 3560.9 -419.1 L3560.9 -53.0 Q3560.9 -35.9 3558.0 -21.9 Q3555.0 -8.0 3542.5 -0.0 Q3530.0 8.0 3502.0 8.0 Z M3318.0 -108.0 Q3352.0 -108.0 3378.9 -125.0 Q3405.9 -142.0 3422.5 -171.4 Q3439.1 -200.9 3439.1 -237.0 Q3439.1 -275.9 3422.0 -305.0 Q3405.0 -334.1 3377.5 -350.5 Q3350.0 -367.0 3315.9 -367.0 Q3279.1 -367.0 3250.0 -349.5 Q3220.9 -332.0 3204.4 -302.5 Q3188.0 -273.0 3188.0 -235.9 Q3188.0 -200.0 3205.0 -170.9 Q3222.0 -142.0 3251.4 -125.0 Q3280.9 -108.0 3318.0 -108.0 Z M3914.0 3.0 Q3864.9 3.0 3826.5 -15.5 Q3788.1 -34.1 3761.5 -67.5 Q3734.9 -100.9 3721.5 -145.0 Q3708.1 -189.1 3708.1 -240.0 Q3709.0 -290.9 3722.9 -335.5 Q3737.0 -380.0 3763.4 -413.0 Q3789.9 -445.9 3827.9 -465.0 Q3866.0 -484.1 3914.0 -484.1 Q3959.9 -484.1 4000.4 -465.0 Q4041.0 -445.9 4072.4 -411.9 Q4104.0 -378.0 4122.0 -333.4 Q4139.9 -289.1 4139.9 -238.0 Q4139.9 -185.9 4122.0 -141.9 Q4104.0 -98.0 4072.9 -65.5 Q4042.0 -33.0 4000.9 -15.0 Q3959.9 3.0 3914.0 3.0 Z M3714.0 210.9 Q3687.0 210.9 3674.0 203.0 Q3661.0 195.0 3657.9 182.0 Q3654.9 169.1 3654.9 152.0 L3654.9 -423.0 Q3654.9 -440.0 3657.9 -453.0 Q3661.0 -465.9 3673.5 -474.4 Q3686.0 -483.0 3713.1 -483.0 Q3739.0 -483.0 3754.0 -475.0 Q3769.0 -467.0 3774.0 -448.0 L3774.0 150.9 Q3774.9 168.0 3771.5 181.4 Q3768.1 195.0 3754.9 203.0 Q3742.0 210.9 3714.0 210.9 Z M3898.1 -109.1 Q3933.1 -109.1 3961.0 -125.5 Q3989.0 -142.0 4005.4 -171.4 Q4022.0 -200.9 4022.0 -238.0 Q4022.0 -275.9 4005.4 -305.0 Q3989.0 -334.1 3961.0 -350.5 Q3933.1 -367.0 3898.1 -367.0 Q3864.0 -367.0 3836.0 -350.0 Q3808.1 -333.0 3791.5 -304.4 Q3774.9 -275.9 3774.9 -238.0 Q3774.9 -200.9 3791.5 -171.4 Q3808.1 -142.0 3836.0 -125.5 Q3864.0 -109.1 3898.1 -109.1 Z" fill="#1f1f1f"/></g>
</svg>
