<?xml version="1.0"?>

<svg xmlns="http://www.w3.org/2000/svg" version="1.1" viewBox="0.00 0.00 508.00 508.00">
<g stroke-width="2.00" fill="none" stroke-linecap="butt">
<path stroke="#515050" vector-effect="non-scaling-stroke" d="&#xA;  M 268.67 477.93&#xA;  Q 266.92 476.34 263.86 478.21"></path>
<path stroke="#929292" vector-effect="non-scaling-stroke" d="&#xA;  M 259.46 478.41&#xA;  Q 271.66 472.69 283.43 466.15&#xA;  C 325.23 442.91 352.90 403.16 354.32 354.72&#xA;  Q 354.56 346.35 353.34 337.47&#xA;  Q 347.60 295.68 319.18 264.56&#xA;  C 306.24 250.37 290.82 236.68 273.87 227.35&#xA;  A 1.48 1.48 0.0 0 0 272.09 227.61&#xA;  C 265.74 234.12 262.67 241.68 256.66 245.77&#xA;  Q 253.43 247.96 249.80 245.21&#xA;  C 243.68 240.57 239.55 233.08 235.35 228.05&#xA;  A 1.98 1.98 0.0 0 0 232.81 227.63&#xA;  C 209.60 241.78 189.27 258.97 173.86 281.85&#xA;  C 147.06 321.65 145.49 372.47 169.18 413.51&#xA;  Q 182.74 437.01 202.05 451.95&#xA;  Q 216.12 462.83 230.74 470.29&#xA;  Q 237.70 473.85 249.03 478.49"></path>
<path stroke="#929292" vector-effect="non-scaling-stroke" d="&#xA;  M 278.01 88.70&#xA;  Q 268.31 95.73 261.17 105.52"></path>
<path stroke="#828180" vector-effect="non-scaling-stroke" d="&#xA;  M 261.17 105.52&#xA;  L 254.37 116.63&#xA;  A 0.57 0.56 42.9 0 1 253.43 116.66&#xA;  Q 251.83 114.43 247.90 108.33&#xA;  Q 246.31 105.86 241.55 99.88&#xA;  Q 238.28 95.77 233.85 92.56&#xA;  Q 230.45 90.10 224.63 85.97&#xA;  C 221.52 83.76 218.32 82.94 215.37 81.37&#xA;  C 211.05 79.05 205.44 77.85 200.11 76.52&#xA;  C 196.65 75.66 194.06 75.80 190.53 75.19&#xA;  C 187.62 74.69 184.02 74.88 181.27 74.90&#xA;  A 8.23 8.22 37.6 0 0 179.34 75.15&#xA;  Q 176.70 75.84 173.87 75.85&#xA;  A 5.57 5.48 37.9 0 0 172.59 76.00&#xA;  Q 160.00 78.97 158.64 79.63&#xA;  C 153.72 82.00 144.81 86.44 138.60 91.53&#xA;  C 130.60 98.09 122.96 106.39 118.15 115.56&#xA;  Q 115.14 121.31 114.45 123.45&#xA;  C 110.53 135.60 107.66 150.06 109.62 162.37&#xA;  Q 111.86 176.48 117.22 186.90&#xA;  Q 126.76 205.47 145.66 217.79&#xA;  Q 155.00 223.87 170.50 227.56&#xA;  C 173.40 228.25 176.52 228.21 179.58 228.73&#xA;  Q 182.56 229.25 186.43 229.00&#xA;  Q 194.70 228.48 202.59 227.08&#xA;  C 206.62 226.37 209.25 224.90 213.68 223.55&#xA;  A 7.60 7.52 -67.7 0 0 215.21 222.90&#xA;  C 220.51 220.00 223.18 218.76 226.66 215.01&#xA;  A 1.80 1.76 -21.1 0 0 227.13 213.98&#xA;  Q 227.85 207.84 232.48 202.94&#xA;  Q 236.91 198.26 244.28 191.03&#xA;  C 249.27 186.13 254.86 183.37 260.99 188.82&#xA;  Q 268.72 195.68 276.73 205.24&#xA;  Q 279.90 209.02 279.91 213.88&#xA;  A 3.44 3.42 -71.6 0 0 281.26 216.59&#xA;  C 290.13 223.38 302.50 227.53 313.76 228.37&#xA;  C 350.11 231.09 380.79 211.06 393.57 176.78&#xA;  C 394.69 173.80 395.20 169.11 396.11 165.57&#xA;  Q 398.89 154.77 396.84 142.37&#xA;  Q 396.60 140.94 394.90 133.07&#xA;  C 392.49 121.86 386.64 111.56 379.56 102.69&#xA;  C 368.40 88.71 349.71 78.19 331.74 75.75&#xA;  Q 302.19 71.73 278.01 88.70"></path>
<path stroke="#efeeee" vector-effect="non-scaling-stroke" d="&#xA;  M 261.17 105.52&#xA;  C 263.73 106.73 266.32 104.77 267.98 102.95&#xA;  Q 274.55 95.73 281.59 88.57&#xA;  Q 282.28 87.87 282.81 86.53&#xA;  A 0.19 0.19 0.0 0 0 282.54 86.29&#xA;  L 278.01 88.70"></path>
<path stroke="#aeacac" vector-effect="non-scaling-stroke" d="&#xA;  M 185.13 174.10&#xA;  C 197.34 174.21 207.71 170.77 218.32 163.88&#xA;  Q 222.57 161.12 223.84 158.44&#xA;  C 226.34 153.20 220.48 146.21 215.05 149.60&#xA;  Q 207.21 154.48 206.74 154.73&#xA;  Q 196.16 160.18 185.25 160.08&#xA;  Q 174.35 159.98 163.87 154.35&#xA;  Q 163.40 154.09 155.65 149.07&#xA;  C 150.28 145.59 144.30 152.47 146.70 157.76&#xA;  Q 147.93 160.46 152.13 163.29&#xA;  C 162.61 170.37 172.92 174.00 185.13 174.10"></path>
<path stroke="#aeacac" vector-effect="non-scaling-stroke" d="&#xA;  M 321.37 159.61&#xA;  Q 306.51 159.75 292.86 150.18&#xA;  C 284.82 144.55 277.28 155.81 285.68 162.06&#xA;  Q 302.20 174.36 321.50 174.18&#xA;  Q 340.80 174.00 357.09 161.41&#xA;  C 365.38 155.01 357.63 143.89 349.70 149.66&#xA;  Q 336.23 159.48 321.37 159.61"></path>
<path stroke="#f2bb80" vector-effect="non-scaling-stroke" d="&#xA;  M 241.91 363.35&#xA;  Q 242.70 366.51 242.05 370.51&#xA;  Q 238.30 393.82 235.98 406.04&#xA;  Q 235.19 410.17 239.42 411.12&#xA;  C 241.98 411.70 244.11 409.69 245.65 407.64&#xA;  Q 268.65 377.12 288.94 351.19&#xA;  Q 291.47 347.95 292.98 344.60&#xA;  A 3.51 3.43 -34.3 0 0 293.28 343.10&#xA;  Q 293.18 339.53 290.35 337.36&#xA;  Q 288.95 336.29 283.93 336.28&#xA;  Q 271.47 336.28 265.50 336.07&#xA;  Q 262.91 335.98 261.00 335.11&#xA;  A 2.01 2.01 0.0 0 1 259.86 332.97&#xA;  Q 263.64 309.28 267.16 291.99&#xA;  Q 267.63 289.71 267.41 288.49&#xA;  A 1.63 1.62 14.1 0 0 266.82 287.51&#xA;  Q 264.91 286.01 262.81 285.73&#xA;  A 1.67 1.64 -61.8 0 0 261.49 286.14&#xA;  Q 259.38 288.05 257.82 290.06&#xA;  Q 240.33 312.67 220.68 339.48&#xA;  C 217.55 343.74 214.52 347.57 212.07 352.34&#xA;  C 209.34 357.65 214.13 360.66 218.56 361.01&#xA;  Q 229.14 361.86 236.98 361.80&#xA;  Q 238.77 361.79 240.81 362.27&#xA;  A 1.46 1.45 -0.3 0 1 241.91 363.35"></path>
</g>
<path fill="#252424" d="&#xA;  M 268.67 477.93&#xA;  Q 266.92 476.34 263.86 478.21&#xA;  L 259.46 478.41&#xA;  Q 271.66 472.69 283.43 466.15&#xA;  C 325.23 442.91 352.90 403.16 354.32 354.72&#xA;  Q 354.56 346.35 353.34 337.47&#xA;  Q 347.60 295.68 319.18 264.56&#xA;  C 306.24 250.37 290.82 236.68 273.87 227.35&#xA;  A 1.48 1.48 0.0 0 0 272.09 227.61&#xA;  C 265.74 234.12 262.67 241.68 256.66 245.77&#xA;  Q 253.43 247.96 249.80 245.21&#xA;  C 243.68 240.57 239.55 233.08 235.35 228.05&#xA;  A 1.98 1.98 0.0 0 0 232.81 227.63&#xA;  C 209.60 241.78 189.27 258.97 173.86 281.85&#xA;  C 147.06 321.65 145.49 372.47 169.18 413.51&#xA;  Q 182.74 437.01 202.05 451.95&#xA;  Q 216.12 462.83 230.74 470.29&#xA;  Q 237.70 473.85 249.03 478.49&#xA;  C 227.29 478.15 207.91 473.76 187.50 466.32&#xA;  C 123.93 443.14 79.40 383.43 71.60 317.05&#xA;  Q 65.63 266.21 86.17 219.71&#xA;  Q 90.63 209.61 89.57 199.09&#xA;  Q 88.02 183.69 87.73 177.98&#xA;  Q 85.28 129.95 111.36 91.33&#xA;  Q 124.68 71.59 145.61 56.36&#xA;  C 175.95 34.28 215.29 24.50 253.00 24.54&#xA;  C 304.60 24.59 357.72 42.65 390.13 84.12&#xA;  Q 412.67 112.96 417.92 149.03&#xA;  C 420.53 166.96 419.22 184.83 417.14 202.75&#xA;  C 416.72 206.39 418.16 212.35 419.67 216.25&#xA;  Q 420.00 217.09 423.15 225.06&#xA;  Q 442.14 273.02 433.97 323.95&#xA;  Q 423.16 391.38 371.97 435.41&#xA;  C 352.33 452.31 326.82 465.06 302.18 472.15&#xA;  Q 285.48 476.96 268.67 477.93&#xA;  Z&#xA;  M 278.01 88.70&#xA;  Q 268.31 95.73 261.17 105.52&#xA;  L 254.37 116.63&#xA;  A 0.57 0.56 42.9 0 1 253.43 116.66&#xA;  Q 251.83 114.43 247.90 108.33&#xA;  Q 246.31 105.86 241.55 99.88&#xA;  Q 238.28 95.77 233.85 92.56&#xA;  Q 230.45 90.10 224.63 85.97&#xA;  C 221.52 83.76 218.32 82.94 215.37 81.37&#xA;  C 211.05 79.05 205.44 77.85 200.11 76.52&#xA;  C 196.65 75.66 194.06 75.80 190.53 75.19&#xA;  C 187.62 74.69 184.02 74.88 181.27 74.90&#xA;  A 8.23 8.22 37.6 0 0 179.34 75.15&#xA;  Q 176.70 75.84 173.87 75.85&#xA;  A 5.57 5.48 37.9 0 0 172.59 76.00&#xA;  Q 160.00 78.97 158.64 79.63&#xA;  C 153.72 82.00 144.81 86.44 138.60 91.53&#xA;  C 130.60 98.09 122.96 106.39 118.15 115.56&#xA;  Q 115.14 121.31 114.45 123.45&#xA;  C 110.53 135.60 107.66 150.06 109.62 162.37&#xA;  Q 111.86 176.48 117.22 186.90&#xA;  Q 126.76 205.47 145.66 217.79&#xA;  Q 155.00 223.87 170.50 227.56&#xA;  C 173.40 228.25 176.52 228.21 179.58 228.73&#xA;  Q 182.56 229.25 186.43 229.00&#xA;  Q 194.70 228.48 202.59 227.08&#xA;  C 206.62 226.37 209.25 224.90 213.68 223.55&#xA;  A 7.60 7.52 -67.7 0 0 215.21 222.90&#xA;  C 220.51 220.00 223.18 218.76 226.66 215.01&#xA;  A 1.80 1.76 -21.1 0 0 227.13 213.98&#xA;  Q 227.85 207.84 232.48 202.94&#xA;  Q 236.91 198.26 244.28 191.03&#xA;  C 249.27 186.13 254.86 183.37 260.99 188.82&#xA;  Q 268.72 195.68 276.73 205.24&#xA;  Q 279.90 209.02 279.91 213.88&#xA;  A 3.44 3.42 -71.6 0 0 281.26 216.59&#xA;  C 290.13 223.38 302.50 227.53 313.76 228.37&#xA;  C 350.11 231.09 380.79 211.06 393.57 176.78&#xA;  C 394.69 173.80 395.20 169.11 396.11 165.57&#xA;  Q 398.89 154.77 396.84 142.37&#xA;  Q 396.60 140.94 394.90 133.07&#xA;  C 392.49 121.86 386.64 111.56 379.56 102.69&#xA;  C 368.40 88.71 349.71 78.19 331.74 75.75&#xA;  Q 302.19 71.73 278.01 88.70&#xA;  Z"></path>
<path fill="#dfdddc" d="&#xA;  M 261.17 105.52&#xA;  C 263.73 106.73 266.32 104.77 267.98 102.95&#xA;  Q 274.55 95.73 281.59 88.57&#xA;  Q 282.28 87.87 282.81 86.53&#xA;  A 0.19 0.19 0.0 0 0 282.54 86.29&#xA;  L 278.01 88.70&#xA;  Q 302.19 71.73 331.74 75.75&#xA;  C 349.71 78.19 368.40 88.71 379.56 102.69&#xA;  C 386.64 111.56 392.49 121.86 394.90 133.07&#xA;  Q 396.60 140.94 396.84 142.37&#xA;  Q 398.89 154.77 396.11 165.57&#xA;  C 395.20 169.11 394.69 173.80 393.57 176.78&#xA;  C 380.79 211.06 350.11 231.09 313.76 228.37&#xA;  C 302.50 227.53 290.13 223.38 281.26 216.59&#xA;  A 3.44 3.42 -71.6 0 1 279.91 213.88&#xA;  Q 279.90 209.02 276.73 205.24&#xA;  Q 268.72 195.68 260.99 188.82&#xA;  C 254.86 183.37 249.27 186.13 244.28 191.03&#xA;  Q 236.91 198.26 232.48 202.94&#xA;  Q 227.85 207.84 227.13 213.98&#xA;  A 1.80 1.76 -21.1 0 1 226.66 215.01&#xA;  C 223.18 218.76 220.51 220.00 215.21 222.90&#xA;  A 7.60 7.52 -67.7 0 1 213.68 223.55&#xA;  C 209.25 224.90 206.62 226.37 202.59 227.08&#xA;  Q 194.70 228.48 186.43 229.00&#xA;  Q 182.56 229.25 179.58 228.73&#xA;  C 176.52 228.21 173.40 228.25 170.50 227.56&#xA;  Q 155.00 223.87 145.66 217.79&#xA;  Q 126.76 205.47 117.22 186.90&#xA;  Q 111.86 176.48 109.62 162.37&#xA;  C 107.66 150.06 110.53 135.60 114.45 123.45&#xA;  Q 115.14 121.31 118.15 115.56&#xA;  C 122.96 106.39 130.60 98.09 138.60 91.53&#xA;  C 144.81 86.44 153.72 82.00 158.64 79.63&#xA;  Q 160.00 78.97 172.59 76.00&#xA;  A 5.57 5.48 37.9 0 1 173.87 75.85&#xA;  Q 176.70 75.84 179.34 75.15&#xA;  A 8.23 8.22 37.6 0 1 181.27 74.90&#xA;  C 184.02 74.88 187.62 74.69 190.53 75.19&#xA;  C 194.06 75.80 196.65 75.66 200.11 76.52&#xA;  C 205.44 77.85 211.05 79.05 215.37 81.37&#xA;  C 218.32 82.94 221.52 83.76 224.63 85.97&#xA;  Q 230.45 90.10 233.85 92.56&#xA;  Q 238.28 95.77 241.55 99.88&#xA;  Q 246.31 105.86 247.90 108.33&#xA;  Q 251.83 114.43 253.43 116.66&#xA;  A 0.57 0.56 42.9 0 0 254.37 116.63&#xA;  L 261.17 105.52&#xA;  Z&#xA;  M 185.13 174.10&#xA;  C 197.34 174.21 207.71 170.77 218.32 163.88&#xA;  Q 222.57 161.12 223.84 158.44&#xA;  C 226.34 153.20 220.48 146.21 215.05 149.60&#xA;  Q 207.21 154.48 206.74 154.73&#xA;  Q 196.16 160.18 185.25 160.08&#xA;  Q 174.35 159.98 163.87 154.35&#xA;  Q 163.40 154.09 155.65 149.07&#xA;  C 150.28 145.59 144.30 152.47 146.70 157.76&#xA;  Q 147.93 160.46 152.13 163.29&#xA;  C 162.61 170.37 172.92 174.00 185.13 174.10&#xA;  Z&#xA;  M 321.37 159.61&#xA;  Q 306.51 159.75 292.86 150.18&#xA;  C 284.82 144.55 277.28 155.81 285.68 162.06&#xA;  Q 302.20 174.36 321.50 174.18&#xA;  Q 340.80 174.00 357.09 161.41&#xA;  C 365.38 155.01 357.63 143.89 349.70 149.66&#xA;  Q 336.23 159.48 321.37 159.61&#xA;  Z"></path>
<path fill="#ffffff" d="&#xA;  M 261.17 105.52&#xA;  Q 268.31 95.73 278.01 88.70&#xA;  L 282.54 86.29&#xA;  A 0.19 0.19 0.0 0 1 282.81 86.53&#xA;  Q 282.28 87.87 281.59 88.57&#xA;  Q 274.55 95.73 267.98 102.95&#xA;  C 266.32 104.77 263.73 106.73 261.17 105.52&#xA;  Z"></path>
<path fill="#7c7b7b" d="&#xA;  M 185.25 160.08&#xA;  Q 196.16 160.18 206.74 154.73&#xA;  Q 207.21 154.48 215.05 149.60&#xA;  C 220.48 146.21 226.34 153.20 223.84 158.44&#xA;  Q 222.57 161.12 218.32 163.88&#xA;  C 207.71 170.77 197.34 174.21 185.13 174.10&#xA;  C 172.92 174.00 162.61 170.37 152.13 163.29&#xA;  Q 147.93 160.46 146.70 157.76&#xA;  C 144.30 152.47 150.28 145.59 155.65 149.07&#xA;  Q 163.40 154.09 163.87 154.35&#xA;  Q 174.35 159.98 185.25 160.08&#xA;  Z"></path>
<path fill="#7c7b7b" d="&#xA;  M 321.50 174.18&#xA;  Q 302.20 174.36 285.68 162.06&#xA;  C 277.28 155.81 284.82 144.55 292.86 150.18&#xA;  Q 306.51 159.75 321.37 159.61&#xA;  Q 336.23 159.48 349.70 149.66&#xA;  C 357.63 143.89 365.38 155.01 357.09 161.41&#xA;  Q 340.80 174.00 321.50 174.18&#xA;  Z"></path>
<path fill="#ffffff" d="&#xA;  M 259.46 478.41&#xA;  L 249.03 478.49&#xA;  Q 237.70 473.85 230.74 470.29&#xA;  Q 216.12 462.83 202.05 451.95&#xA;  Q 182.74 437.01 169.18 413.51&#xA;  C 145.49 372.47 147.06 321.65 173.86 281.85&#xA;  C 189.27 258.97 209.60 241.78 232.81 227.63&#xA;  A 1.98 1.98 0.0 0 1 235.35 228.05&#xA;  C 239.55 233.08 243.68 240.57 249.80 245.21&#xA;  Q 253.43 247.96 256.66 245.77&#xA;  C 262.67 241.68 265.74 234.12 272.09 227.61&#xA;  A 1.48 1.48 0.0 0 1 273.87 227.35&#xA;  C 290.82 236.68 306.24 250.37 319.18 264.56&#xA;  Q 347.60 295.68 353.34 337.47&#xA;  Q 354.56 346.35 354.32 354.72&#xA;  C 352.90 403.16 325.23 442.91 283.43 466.15&#xA;  Q 271.66 472.69 259.46 478.41&#xA;  Z&#xA;  M 241.91 363.35&#xA;  Q 242.70 366.51 242.05 370.51&#xA;  Q 238.30 393.82 235.98 406.04&#xA;  Q 235.19 410.17 239.42 411.12&#xA;  C 241.98 411.70 244.11 409.69 245.65 407.64&#xA;  Q 268.65 377.12 288.94 351.19&#xA;  Q 291.47 347.95 292.98 344.60&#xA;  A 3.51 3.43 -34.3 0 0 293.28 343.10&#xA;  Q 293.18 339.53 290.35 337.36&#xA;  Q 288.95 336.29 283.93 336.28&#xA;  Q 271.47 336.28 265.50 336.07&#xA;  Q 262.91 335.98 261.00 335.11&#xA;  A 2.01 2.01 0.0 0 1 259.86 332.97&#xA;  Q 263.64 309.28 267.16 291.99&#xA;  Q 267.63 289.71 267.41 288.49&#xA;  A 1.63 1.62 14.1 0 0 266.82 287.51&#xA;  Q 264.91 286.01 262.81 285.73&#xA;  A 1.67 1.64 -61.8 0 0 261.49 286.14&#xA;  Q 259.38 288.05 257.82 290.06&#xA;  Q 240.33 312.67 220.68 339.48&#xA;  C 217.55 343.74 214.52 347.57 212.07 352.34&#xA;  C 209.34 357.65 214.13 360.66 218.56 361.01&#xA;  Q 229.14 361.86 236.98 361.80&#xA;  Q 238.77 361.79 240.81 362.27&#xA;  A 1.46 1.45 -0.3 0 1 241.91 363.35&#xA;  Z"></path>
<path fill="#e47600" d="&#xA;  M 241.91 363.35&#xA;  A 1.46 1.45 -0.3 0 0 240.81 362.27&#xA;  Q 238.77 361.79 236.98 361.80&#xA;  Q 229.14 361.86 218.56 361.01&#xA;  C 214.13 360.66 209.34 357.65 212.07 352.34&#xA;  C 214.52 347.57 217.55 343.74 220.68 339.48&#xA;  Q 240.33 312.67 257.82 290.06&#xA;  Q 259.38 288.05 261.49 286.14&#xA;  A 1.67 1.64 -61.8 0 1 262.81 285.73&#xA;  Q 264.91 286.01 266.82 287.51&#xA;  A 1.63 1.62 14.1 0 1 267.41 288.49&#xA;  Q 267.63 289.71 267.16 291.99&#xA;  Q 263.64 309.28 259.86 332.97&#xA;  A 2.01 2.01 0.0 0 0 261.00 335.11&#xA;  Q 262.91 335.98 265.50 336.07&#xA;  Q 271.47 336.28 283.93 336.28&#xA;  Q 288.95 336.29 290.35 337.36&#xA;  Q 293.18 339.53 293.28 343.10&#xA;  A 3.51 3.43 -34.3 0 1 292.98 344.60&#xA;  Q 291.47 347.95 288.94 351.19&#xA;  Q 268.65 377.12 245.65 407.64&#xA;  C 244.11 409.69 241.98 411.70 239.42 411.12&#xA;  Q 235.19 410.17 235.98 406.04&#xA;  Q 238.30 393.82 242.05 370.51&#xA;  Q 242.70 366.51 241.91 363.35&#xA;  Z"></path>
<path fill="#7c7b7b" d="&#xA;  M 268.67 477.93&#xA;  L 263.86 478.21&#xA;  Q 266.92 476.34 268.67 477.93&#xA;  Z"></path>
</svg>